<svg id="Layer_1" data-name="Layer 1" xmlns="http://www.w3.org/2000/svg" viewBox="0 0 200 200"><defs><style>.cls-1{fill:#009ddc;}.cls-2{fill:#f0f0f0;}.cls-3{fill:#1565c0;}.cls-4{fill:#bbdefb;}.cls-5{fill:#e3f2fd;}.cls-6{fill:#64b5f6;}.cls-7{fill:#90caf9;}.cls-8{fill:#733725;}.cls-9{fill:#8f4d38;}.cls-10{fill:#fbc02d;}.cls-11{fill:#ffee58;}</style></defs><title>icons-color-home</title><circle class="cls-1" cx="100" cy="100" r="100"/><path class="cls-2" d="M49.09,150.91V45.45a3.64,3.64,0,0,0-7.27,0V158.18H154.55a3.64,3.64,0,1,0,0-7.27Z"/><rect class="cls-3" x="60" y="121.82" width="21.82" height="29.09"/><rect class="cls-3" x="92.73" y="101.82" width="21.82" height="49.09"/><rect class="cls-3" x="125.45" y="61.82" width="21.82" height="89.09"/><path class="cls-4" d="M127.77,81.21A30,30,0,1,0,70.75,93L44.75,119A18.77,18.77,0,0,0,57.25,131.5L82.8,105.89a30,30,0,0,0,45-24.68Z"/><path class="cls-5" d="M99.1,49.89A30,30,0,0,0,70.75,93L44.75,119a19.27,19.27,0,0,0,5.45,8.47L119,58.7A29.88,29.88,0,0,0,99.1,49.89Z"/><circle class="cls-6" cx="97.77" cy="79.88" r="21.45" transform="translate(13.65 174.03) rotate(-87.47)"/><path class="cls-7" d="M98.72,58.46A21.42,21.42,0,0,0,82.65,95l30.29-30.29A21.35,21.35,0,0,0,98.72,58.46Z"/><path class="cls-8" d="M70.75,93,44.75,119A18.77,18.77,0,0,0,57.25,131.5L82.8,105.89A30.14,30.14,0,0,1,70.75,93Z"/><path class="cls-9" d="M70.75,93,44.75,119a19.27,19.27,0,0,0,5.45,8.47l26.39-26.39A30,30,0,0,1,70.75,93Z"/><path class="cls-10" d="M77.29,111.42l5.52-5.53A30.14,30.14,0,0,1,70.75,93l-6,6Z"/><path class="cls-11" d="M70.75,93l-6,6,7,7,4.82-4.82A30,30,0,0,1,70.75,93Z"/></svg>